<svg width="24" height="25" viewBox="0 0 24 25" fill="none" xmlns="http://www.w3.org/2000/svg">
<rect x="4.5" y="7" width="15" height="13" rx="0.5" fill="white" stroke="black"/>
<rect x="4.5" y="5" width="15" height="13" rx="0.5" fill="white" stroke="black"/>
<rect x="4.5" y="5" width="15" height="2" rx="0.5" fill="white" stroke="black"/>
<path d="M8.56425 10.7V9.668H10.4922V15.5H9.34025V10.7H8.56425ZM11.3747 11.204C11.4014 10.6707 11.588 10.26 11.9347 9.972C12.2867 9.67867 12.748 9.532 13.3187 9.532C13.708 9.532 14.0414 9.60133 14.3187 9.74C14.596 9.87333 14.804 10.0573 14.9427 10.292C15.0867 10.5213 15.1587 10.7827 15.1587 11.076C15.1587 11.412 15.0707 11.6973 14.8947 11.932C14.724 12.1613 14.5187 12.316 14.2787 12.396V12.428C14.588 12.524 14.828 12.6947 14.9987 12.94C15.1747 13.1853 15.2627 13.5 15.2627 13.884C15.2627 14.204 15.188 14.4893 15.0387 14.74C14.8947 14.9907 14.6787 15.188 14.3907 15.332C14.108 15.4707 13.7667 15.54 13.3667 15.54C12.764 15.54 12.2734 15.388 11.8947 15.084C11.516 14.78 11.316 14.332 11.2947 13.74H12.3827C12.3934 14.0013 12.4814 14.212 12.6467 14.372C12.8174 14.5267 13.0494 14.604 13.3427 14.604C13.6147 14.604 13.8227 14.5293 13.9667 14.38C14.116 14.2253 14.1907 14.028 14.1907 13.788C14.1907 13.468 14.0894 13.2387 13.8867 13.1C13.684 12.9613 13.3694 12.892 12.9427 12.892H12.7107V11.972H12.9427C13.7 11.972 14.0787 11.7187 14.0787 11.212C14.0787 10.9827 14.0094 10.804 13.8707 10.676C13.7374 10.548 13.5427 10.484 13.2867 10.484C13.036 10.484 12.8414 10.5533 12.7027 10.692C12.5694 10.8253 12.492 10.996 12.4707 11.204H11.3747Z" fill="black"/>
<rect x="0.5" y="1" width="23" height="23" rx="11.5" stroke="black"/>
</svg>
