<svg width="25" height="24" viewBox="0 0 25 24" fill="none"  xmlns="http://www.w3.org/2000/svg">
<mask id="path-2-inside-1_1713_13314" fill="white">
<path fill-rule="evenodd" clip-rule="evenodd" d="M10.4999 5C10.4999 4.44772 10.9476 4 11.4999 4H13.4999C14.0522 4 14.4999 4.44772 14.4999 5V5.28988C14.9655 5.42846 15.4109 5.61418 15.8303 5.84151L16.0358 5.63603C16.2349 5.4369 16.4972 5.33931 16.7581 5.34325C17.0091 5.34694 17.259 5.44453 17.4505 5.63604L18.8647 7.05025C19.2552 7.44078 19.2552 8.07394 18.8647 8.46447L18.6588 8.67035C18.886 9.0896 19.0715 9.53466 19.21 10H19.5007C20.053 10 20.5007 10.4477 20.5007 11V13C20.5007 13.5523 20.053 14 19.5007 14H19.21C19.0716 14.4651 18.8861 14.9099 18.6592 15.329L18.865 15.5348C19.2555 15.9253 19.2555 16.5585 18.865 16.949L17.4507 18.3632C17.0602 18.7538 16.4271 18.7538 16.0365 18.3632L15.8313 18.158C15.4115 18.3855 14.9659 18.5714 14.4999 18.7101V19C14.4999 19.5523 14.0522 20 13.4999 20H11.4999C10.9476 20 10.4999 19.5523 10.4999 19V18.7101C10.0347 18.5717 9.58974 18.3862 9.17058 18.1591L8.96573 18.3639C8.77726 18.5524 8.53229 18.6499 8.28535 18.6565C8.02042 18.6637 7.75318 18.5662 7.55099 18.364L6.13677 16.9497C5.74625 16.5592 5.74625 15.9261 6.13677 15.5355L6.34157 15.3307C6.11416 14.9112 5.92839 14.4657 5.78978 14H5.50073C4.94845 14 4.50073 13.5523 4.50073 13V11C4.50073 10.4477 4.94845 10 5.50073 10H5.78978C5.92839 9.53426 6.11417 9.08883 6.34157 8.66925L6.13704 8.46472C5.74651 8.0742 5.74651 7.44103 6.13704 7.05051L7.55125 5.63629C7.94178 5.24577 8.57494 5.24577 8.96547 5.63629L9.17025 5.84108C9.58951 5.61394 10.0346 5.42837 10.4999 5.28988V5ZM12.4999 14C13.6045 14 14.4999 13.1046 14.4999 12C14.4999 10.8954 13.6045 10 12.4999 10C11.3953 10 10.4999 10.8954 10.4999 12C10.4999 13.1046 11.3953 14 12.4999 14Z"/>
</mask>
<path fill-rule="evenodd" clip-rule="evenodd" d="M10.4999 5C10.4999 4.44772 10.9476 4 11.4999 4H13.4999C14.0522 4 14.4999 4.44772 14.4999 5V5.28988C14.9655 5.42846 15.4109 5.61418 15.8303 5.84151L16.0358 5.63603C16.2349 5.4369 16.4972 5.33931 16.7581 5.34325C17.0091 5.34694 17.259 5.44453 17.4505 5.63604L18.8647 7.05025C19.2552 7.44078 19.2552 8.07394 18.8647 8.46447L18.6588 8.67035C18.886 9.0896 19.0715 9.53466 19.21 10H19.5007C20.053 10 20.5007 10.4477 20.5007 11V13C20.5007 13.5523 20.053 14 19.5007 14H19.21C19.0716 14.4651 18.8861 14.9099 18.6592 15.329L18.865 15.5348C19.2555 15.9253 19.2555 16.5585 18.865 16.949L17.4507 18.3632C17.0602 18.7538 16.4271 18.7538 16.0365 18.3632L15.8313 18.158C15.4115 18.3855 14.9659 18.5714 14.4999 18.7101V19C14.4999 19.5523 14.0522 20 13.4999 20H11.4999C10.9476 20 10.4999 19.5523 10.4999 19V18.7101C10.0347 18.5717 9.58974 18.3862 9.17058 18.1591L8.96573 18.3639C8.77726 18.5524 8.53229 18.6499 8.28535 18.6565C8.02042 18.6637 7.75318 18.5662 7.55099 18.364L6.13677 16.9497C5.74625 16.5592 5.74625 15.9261 6.13677 15.5355L6.34157 15.3307C6.11416 14.9112 5.92839 14.4657 5.78978 14H5.50073C4.94845 14 4.50073 13.5523 4.50073 13V11C4.50073 10.4477 4.94845 10 5.50073 10H5.78978C5.92839 9.53426 6.11417 9.08883 6.34157 8.66925L6.13704 8.46472C5.74651 8.0742 5.74651 7.44103 6.13704 7.05051L7.55125 5.63629C7.94178 5.24577 8.57494 5.24577 8.96547 5.63629L9.17025 5.84108C9.58951 5.61394 10.0346 5.42837 10.4999 5.28988V5ZM12.4999 14C13.6045 14 14.4999 13.1046 14.4999 12C14.4999 10.8954 13.6045 10 12.4999 10C11.3953 10 10.4999 10.8954 10.4999 12C10.4999 13.1046 11.3953 14 12.4999 14Z" fill="#FFC864"/>
<path d="M14.4999 5.28988H13.4999V6.03561L14.2146 6.24833L14.4999 5.28988ZM15.8303 5.84151L15.3539 6.7207L16.0099 7.0762L16.5374 6.54862L15.8303 5.84151ZM16.0358 5.63603L16.7429 6.34314L16.7429 6.34314L16.0358 5.63603ZM16.7581 5.34325L16.743 6.34314L16.7435 6.34315L16.7581 5.34325ZM17.4505 5.63604L16.7434 6.34314L16.7434 6.34315L17.4505 5.63604ZM18.8647 7.05025L19.5718 6.34315L19.5718 6.34315L18.8647 7.05025ZM18.8647 8.46447L19.5718 9.17157L19.5718 9.17157L18.8647 8.46447ZM18.6588 8.67035L17.9517 7.96324L17.4242 8.49076L17.7796 9.1467L18.6588 8.67035ZM19.21 10L18.2516 10.2853L18.4643 11H19.21V10ZM19.21 14V13H18.4643L18.2516 13.7147L19.21 14ZM18.6592 15.329L17.7799 14.8528L17.4246 15.5087L17.9521 16.0361L18.6592 15.329ZM15.8313 18.158L16.5384 17.4509L16.0107 16.9232L15.3547 17.2789L15.8313 18.158ZM14.4999 18.7101L14.2146 17.7517L13.4999 17.9644V18.7101H14.4999ZM10.4999 18.7101H11.4999V17.9644L10.7851 17.7517L10.4999 18.7101ZM9.17058 18.1591L9.64688 17.2798L8.99096 16.9245L8.46347 17.452L9.17058 18.1591ZM8.96573 18.3639L8.25862 17.6568L8.25862 17.6568L8.96573 18.3639ZM8.28535 18.6565L8.25878 17.6568L8.25826 17.6569L8.28535 18.6565ZM7.55099 18.364L8.25809 17.6569H8.25809L7.55099 18.364ZM6.13677 16.9497L5.42966 17.6569H5.42966L6.13677 16.9497ZM6.13677 15.5355L5.42967 14.8284L5.42966 14.8284L6.13677 15.5355ZM6.34157 15.3307L7.04867 16.0378L7.57629 15.5102L7.22074 14.8542L6.34157 15.3307ZM5.78978 14L6.74823 13.7148L6.53551 13H5.78978V14ZM5.78978 10V11H6.53551L6.74823 10.2852L5.78978 10ZM6.34157 8.66925L7.22074 9.14576L7.57629 8.48976L7.04868 7.96215L6.34157 8.66925ZM6.13704 8.46472L5.42993 9.17183L5.42993 9.17183L6.13704 8.46472ZM6.13704 7.05051L5.42993 6.3434L5.42993 6.3434L6.13704 7.05051ZM7.55125 5.63629L6.84415 4.92919L6.84415 4.92919L7.55125 5.63629ZM8.96547 5.63629L8.25836 6.3434L8.25836 6.3434L8.96547 5.63629ZM9.17025 5.84108L8.46315 6.54819L8.99066 7.0757L9.6466 6.72034L9.17025 5.84108ZM10.4999 5.28988L10.7851 6.24833L11.4999 6.03561V5.28988H10.4999ZM11.4999 3C10.3953 3 9.4999 3.89543 9.4999 5H11.4999V5V3ZM13.4999 3H11.4999V5H13.4999V3ZM15.4999 5C15.4999 3.89543 14.6045 3 13.4999 3V5H15.4999ZM15.4999 5.28988V5H13.4999V5.28988H15.4999ZM16.3068 4.96232C15.8272 4.70242 15.3179 4.48997 14.7851 4.33143L14.2146 6.24833C14.6132 6.36694 14.9945 6.52594 15.3539 6.7207L16.3068 4.96232ZM15.3287 4.92892L15.1232 5.1344L16.5374 6.54862L16.7429 6.34314L15.3287 4.92892ZM16.7733 4.34337C16.253 4.3355 15.7269 4.53078 15.3287 4.92893L16.7429 6.34314L16.743 6.34314L16.7733 4.34337ZM18.1576 4.92893C17.7748 4.54618 17.2734 4.35071 16.7728 4.34336L16.7435 6.34315L16.7434 6.34314L18.1576 4.92893ZM19.5718 6.34315L18.1576 4.92893L16.7434 6.34315L18.1576 7.75736L19.5718 6.34315ZM19.5718 9.17157C20.3528 8.39052 20.3528 7.12419 19.5718 6.34315L18.1576 7.75736V7.75736L19.5718 9.17157ZM19.3659 9.37745L19.5718 9.17157L18.1576 7.75736L17.9517 7.96324L19.3659 9.37745ZM20.1685 9.71475C20.01 9.18235 19.7977 8.67331 19.5381 8.194L17.7796 9.1467C17.9742 9.5059 18.133 9.88697 18.2516 10.2853L20.1685 9.71475ZM19.5007 9H19.21V11H19.5007V9ZM21.5007 11C21.5007 9.89543 20.6053 9 19.5007 9V11H21.5007ZM21.5007 13V11H19.5007V13H21.5007ZM19.5007 15C20.6053 15 21.5007 14.1046 21.5007 13H19.5007V15ZM19.21 15H19.5007V13H19.21V15ZM19.5385 15.8053C19.798 15.3262 20.0101 14.8174 20.1685 14.2853L18.2516 13.7147C18.1331 14.1128 17.9743 14.4937 17.7799 14.8528L19.5385 15.8053ZM19.5721 14.8277L19.3663 14.6219L17.9521 16.0361L18.1578 16.2419L19.5721 14.8277ZM19.5721 17.6561C20.3531 16.8751 20.3531 15.6087 19.5721 14.8277L18.1578 16.2419L19.5721 17.6561ZM18.1578 19.0703L19.5721 17.6561L18.1578 16.2419L16.7436 17.6561L18.1578 19.0703ZM15.3294 19.0703C16.1105 19.8514 17.3768 19.8514 18.1578 19.0703L16.7436 17.6561L15.3294 19.0703ZM15.1242 18.8651L15.3294 19.0703L16.7436 17.6561L16.5384 17.4509L15.1242 18.8651ZM14.7851 19.6686C15.3183 19.5099 15.828 19.2973 16.3079 19.0371L15.3547 17.2789C14.995 17.4738 14.6135 17.633 14.2146 17.7517L14.7851 19.6686ZM15.4999 19V18.7101H13.4999V19H15.4999ZM13.4999 21C14.6045 21 15.4999 20.1046 15.4999 19H13.4999V21ZM11.4999 21H13.4999V19H11.4999V21ZM9.4999 19C9.4999 20.1046 10.3953 21 11.4999 21V19H9.4999ZM9.4999 18.7101V19H11.4999V18.7101H9.4999ZM8.69428 19.0384C9.17348 19.298 9.68239 19.5102 10.2146 19.6686L10.7851 17.7517C10.387 17.6332 10.006 17.4743 9.64688 17.2798L8.69428 19.0384ZM9.67283 19.0711L9.87769 18.8662L8.46347 17.452L8.25862 17.6568L9.67283 19.0711ZM8.31191 19.6561C8.80455 19.643 9.29622 19.4477 9.67283 19.0711L8.25862 17.6568L8.25878 17.6568L8.31191 19.6561ZM6.84388 19.0711C7.2482 19.4754 7.78442 19.6704 8.31243 19.6561L8.25826 17.6569L8.25809 17.6569L6.84388 19.0711ZM5.42966 17.6569L6.84388 19.0711L8.25809 17.6569L6.84388 16.2426L5.42966 17.6569ZM5.42966 14.8284C4.64862 15.6095 4.64862 16.8758 5.42966 17.6569L6.84388 16.2426V16.2426L5.42966 14.8284ZM5.63446 14.6236L5.42967 14.8284L6.84388 16.2426L7.04867 16.0378L5.63446 14.6236ZM4.83132 14.2852C4.98991 14.8181 5.20242 15.3276 5.4624 15.8072L7.22074 14.8542C7.02591 14.4948 6.86686 14.1134 6.74823 13.7148L4.83132 14.2852ZM5.78978 13H5.50073V15H5.78978V13ZM5.50073 13H3.50073C3.50073 14.1046 4.39616 15 5.50073 15V13ZM5.50073 13V11H3.50073V13H5.50073ZM5.50073 11H5.50073V9C4.39616 9 3.50073 9.89543 3.50073 11H5.50073ZM5.50073 11H5.78978V9H5.50073V11ZM5.4624 8.19275C5.20242 8.67243 4.98991 9.18189 4.83132 9.71475L6.74823 10.2852C6.86686 9.88663 7.02591 9.50523 7.22074 9.14576L5.4624 8.19275ZM5.42993 9.17183L5.63447 9.37636L7.04868 7.96215L6.84415 7.75761L5.42993 9.17183ZM5.42993 6.3434C4.64888 7.12445 4.64888 8.39078 5.42993 9.17183L6.84415 7.75761V7.75761L5.42993 6.3434ZM6.84415 4.92919L5.42993 6.3434L6.84415 7.75761L8.25836 6.3434L6.84415 4.92919ZM9.67257 4.92919C8.89152 4.14814 7.62519 4.14814 6.84415 4.92919L8.25836 6.3434L8.25836 6.3434L9.67257 4.92919ZM9.87736 5.13397L9.67257 4.92919L8.25836 6.3434L8.46315 6.54819L9.87736 5.13397ZM10.2146 4.33143C9.68225 4.48987 9.17321 4.70215 8.6939 4.96182L9.6466 6.72034C10.0058 6.52574 10.3869 6.36686 10.7851 6.24833L10.2146 4.33143ZM9.4999 5V5.28988H11.4999V5H9.4999ZM13.4999 12C13.4999 12.5523 13.0522 13 12.4999 13V15C14.1568 15 15.4999 13.6569 15.4999 12H13.4999ZM12.4999 11C13.0522 11 13.4999 11.4477 13.4999 12H15.4999C15.4999 10.3431 14.1568 9 12.4999 9V11ZM11.4999 12C11.4999 11.4477 11.9476 11 12.4999 11V9C10.843 9 9.4999 10.3431 9.4999 12H11.4999ZM12.4999 13C11.9476 13 11.4999 12.5523 11.4999 12H9.4999C9.4999 13.6569 10.843 15 12.4999 15V13Z" fill="black" mask="url(#path-2-inside-1_1713_13314)"/>
<rect x="1" y="0.5" width="23" height="23" rx="11.5" stroke="black"/>
</svg>
