<svg width="24" height="25" viewBox="0 0 24 25" fill="none" xmlns="http://www.w3.org/2000/svg">
<mask id="path-2-inside-1_1713_25116" fill="white">
<path fill-rule="evenodd" clip-rule="evenodd" d="M12 2.5C8.13401 2.5 5 5.63401 5 9.5C5 12.1434 6.46527 14.4447 8.62792 15.6357C8.91028 15.7912 9 16.1776 9 16.5V18.5C9 19.0523 9.44772 19.5 10 19.5H14C14.5523 19.5 15 19.0523 15 18.5V16.5C15 16.1776 15.0897 15.7912 15.3721 15.6357C17.5347 14.4447 19 12.1434 19 9.5C19 5.63401 15.866 2.5 12 2.5Z"/>
</mask>
<path fill-rule="evenodd" clip-rule="evenodd" d="M12 2.5C8.13401 2.5 5 5.63401 5 9.5C5 12.1434 6.46527 14.4447 8.62792 15.6357C8.91028 15.7912 9 16.1776 9 16.5V18.5C9 19.0523 9.44772 19.5 10 19.5H14C14.5523 19.5 15 19.0523 15 18.5V16.5C15 16.1776 15.0897 15.7912 15.3721 15.6357C17.5347 14.4447 19 12.1434 19 9.5C19 5.63401 15.866 2.5 12 2.5Z" fill="white"/>
<path d="M8.62792 15.6357L8.14549 16.5117L8.62792 15.6357ZM6 9.5C6 6.18629 8.68629 3.5 12 3.5V1.5C7.58172 1.5 4 5.08172 4 9.5H6ZM9.11034 14.7598C7.25407 13.7375 6 11.7645 6 9.5H4C4 12.5224 5.67648 15.1519 8.14549 16.5117L9.11034 14.7598ZM10 18.5V16.5H8V18.5H10ZM10 18.5H8C8 19.6046 8.89543 20.5 10 20.5V18.5ZM14 18.5H10V20.5H14V18.5ZM14 18.5V20.5C15.1046 20.5 16 19.6046 16 18.5H14ZM14 16.5V18.5H16V16.5H14ZM18 9.5C18 11.7645 16.7459 13.7375 14.8897 14.7598L15.8545 16.5117C18.3235 15.1519 20 12.5224 20 9.5H18ZM12 3.5C15.3137 3.5 18 6.18629 18 9.5H20C20 5.08172 16.4183 1.5 12 1.5V3.5ZM16 16.5C16 16.4647 16.0025 16.4308 16.007 16.4018C16.0115 16.3721 16.0167 16.3558 16.0182 16.3517C16.0199 16.3472 16.0137 16.3663 15.9901 16.3973C15.9648 16.4305 15.9207 16.4752 15.8545 16.5117L14.8897 14.7598C14.4699 14.991 14.2516 15.3624 14.1421 15.6589C14.0323 15.9561 14 16.2574 14 16.5H16ZM8.14549 16.5117C8.0793 16.4752 8.0352 16.4305 8.00986 16.3973C7.98627 16.3663 7.98008 16.3472 7.98175 16.3517C7.98327 16.3558 7.98849 16.3721 7.99303 16.4018C7.99746 16.4308 8 16.4647 8 16.5H10C10 16.2574 9.96766 15.9561 9.85793 15.6589C9.74845 15.3624 9.5301 14.991 9.11034 14.7598L8.14549 16.5117Z" fill="black" mask="url(#path-2-inside-1_1713_25116)"/>
<rect x="9.5" y="18" width="5" height="2" rx="0.5" fill="white" stroke="black"/>
<rect x="10.5" y="20" width="3" height="2" rx="0.5" fill="white" stroke="black"/>
<path d="M12 17.5V12.5" stroke="black"/>
<circle cx="11" cy="12.5" r="1" stroke="black"/>
<circle cx="13" cy="12.5" r="1" stroke="black"/>
<rect x="0.5" y="1" width="23" height="23" rx="11.5" stroke="black"/>
</svg>
