<svg width="20" height="21" viewBox="0 0 20 21" fill="none" xmlns="http://www.w3.org/2000/svg">
<g clip-path="url(#clip0_1713_19314)">
<path d="M10 2.43223C12.6278 2.43223 12.9387 2.44238 13.9766 2.48965C14.936 2.5334 15.4571 2.69355 15.804 2.82832C16.2633 3.00684 16.5911 3.22012 16.9356 3.56426C17.2801 3.90879 17.4934 4.23652 17.6715 4.6959C17.8063 5.04277 17.9665 5.56387 18.0102 6.52324C18.0575 7.56074 18.0676 7.87207 18.0676 10.4998C18.0676 13.1275 18.0575 13.4385 18.0102 14.4764C17.9665 15.4357 17.8063 15.9568 17.6715 16.3037C17.493 16.7631 17.2797 17.0908 16.9356 17.4354C16.5911 17.7799 16.2633 17.9932 15.804 18.1713C15.4571 18.3061 14.936 18.4662 13.9766 18.51C12.9391 18.5572 12.6278 18.5674 10 18.5674C7.37232 18.5674 7.06099 18.5572 6.02349 18.51C5.06411 18.4662 4.54302 18.3061 4.19614 18.1713C3.73677 17.9928 3.40903 17.7795 3.0645 17.4354C2.71997 17.0908 2.50669 16.7631 2.32856 16.3037C2.1938 15.9568 2.03364 15.4357 1.98989 14.4764C1.94263 13.4389 1.93247 13.1275 1.93247 10.4998C1.93247 7.87207 1.94263 7.56113 1.98989 6.52324C2.03364 5.56387 2.1938 5.04277 2.32856 4.6959C2.50708 4.23652 2.72036 3.90879 3.0645 3.56426C3.40903 3.21973 3.73677 3.00645 4.19614 2.82832C4.54302 2.69355 5.06411 2.5334 6.02349 2.48965C7.06138 2.44238 7.37232 2.43223 10 2.43223ZM10 0.65918C7.32739 0.65918 6.99224 0.670508 5.94263 0.718555C4.89536 0.766211 4.17974 0.932617 3.55396 1.17598C2.90669 1.42754 2.35786 1.76387 1.81099 2.31113C1.26411 2.85801 0.927393 3.40684 0.67583 4.05371C0.432471 4.67949 0.266064 5.39512 0.218408 6.44238C0.170752 7.49199 0.159424 7.82715 0.159424 10.4998C0.159424 13.1725 0.170752 13.5076 0.218799 14.5572C0.266455 15.6045 0.432861 16.3201 0.676221 16.9459C0.927783 17.5932 1.26411 18.142 1.81138 18.6889C2.35864 19.2361 2.90708 19.5725 3.55435 19.824C4.18013 20.0674 4.89575 20.2338 5.94302 20.2814C6.99263 20.3295 7.32778 20.3408 10.0004 20.3408C12.6731 20.3408 13.0083 20.3295 14.0579 20.2814C15.1051 20.2338 15.8208 20.0674 16.4465 19.824C17.0938 19.5725 17.6426 19.2361 18.1895 18.6889C18.7368 18.1416 19.0731 17.5932 19.3247 16.9459C19.568 16.3201 19.7344 15.6045 19.7821 14.5572C19.8301 13.5076 19.8415 13.1725 19.8415 10.4998C19.8415 7.82715 19.8301 7.49199 19.7821 6.44238C19.7344 5.39512 19.568 4.67949 19.3247 4.05371C19.0731 3.40645 18.7368 2.85762 18.1895 2.31074C17.6422 1.76348 17.0938 1.42715 16.4465 1.17559C15.8208 0.932227 15.1051 0.76582 14.0579 0.718164C13.0079 0.670508 12.6727 0.65918 10 0.65918Z" fill="white"/>
<path d="M9.9999 5.44678C7.20889 5.44678 4.94678 7.70928 4.94678 10.4999C4.94678 13.2905 7.20889 15.553 9.9999 15.553C12.7909 15.553 15.053 13.2909 15.053 10.4999C15.053 7.70889 12.7909 5.44678 9.9999 5.44678ZM9.9999 13.78C8.18818 13.78 6.71982 12.3112 6.71982 10.4999C6.71982 8.68857 8.18857 7.21982 9.9999 7.21982C11.8116 7.21982 13.28 8.68857 13.28 10.4999C13.28 12.3112 11.8116 13.78 9.9999 13.78Z" fill="white"/>
<path d="M15.2531 6.42764C15.9053 6.42764 16.434 5.89895 16.434 5.24678C16.434 4.59461 15.9053 4.06592 15.2531 4.06592C14.601 4.06592 14.0723 4.59461 14.0723 5.24678C14.0723 5.89895 14.601 6.42764 15.2531 6.42764Z" fill="white"/>
</g>
<defs>
<clipPath id="clip0_1713_19314">
<rect width="20" height="20" fill="white" transform="translate(0 0.5)"/>
</clipPath>
</defs>
</svg>
