<svg width="20" height="21" viewBox="0 0 20 21" fill="none" xmlns="http://www.w3.org/2000/svg">
<path d="M18.522 20.5C19.3383 20.5 20 19.8586 20 19.0673L20 1.93268C20 1.14164 19.3383 0.5 18.522 0.5L1.47796 0.5C0.661689 0.5 0 1.14164 0 1.93268L0 19.0673C0 19.8586 0.661689 20.5 1.47796 20.5L18.522 20.5ZM4.5522 6.97791H4.53251C3.51875 6.97791 2.86322 6.28442 2.86322 5.41776C2.86322 4.53159 3.53885 3.85734 4.57218 3.85734C5.60562 3.85734 6.24165 4.53159 6.26128 5.41776C6.26128 6.28442 5.60562 6.97791 4.5522 6.97791ZM10.7549 17.2421H7.73414L7.73432 17.2038C7.73434 17.1985 7.73437 17.1926 7.7344 17.1862L7.73461 17.1415C7.73655 16.7253 7.74399 15.0767 7.74841 13.3019L7.74903 13.0443L7.7496 12.7857C7.74969 12.7425 7.74978 12.6994 7.74987 12.6562L7.75035 12.3975C7.75081 12.1391 7.75118 11.8819 7.75143 11.6293L7.75167 11.3163L7.7517 11.2544L7.75172 10.6517C7.7517 10.6127 7.75168 10.5739 7.75165 10.5354L7.75143 10.3076C7.75015 9.26067 7.74526 8.44823 7.73414 8.21095H10.755L10.755 9.48994L10.7612 9.48009C11.1639 8.86525 11.8832 7.99903 13.4774 7.99903C15.4649 7.99903 16.9552 9.2898 16.9552 12.0638V17.2421L13.9346 17.2421L13.9346 12.4106C13.9346 11.1966 13.4973 10.3684 12.4043 10.3684C11.5697 10.3684 11.0727 10.9269 10.8543 11.4662C10.7746 11.6592 10.7549 11.9288 10.7549 12.1987L10.7549 17.2421ZM6.06262 17.2421H3.0418L3.0418 8.21095H6.06262L6.06262 17.2421Z" fill="white"/>
</svg>
