<svg width="24" height="24" viewBox="0 0 24 24" fill="none" xmlns="http://www.w3.org/2000/svg">
<path fill-rule="evenodd" clip-rule="evenodd" d="M18 12C18.5523 12 19 12.4477 19 13V14.0513C19 14.23 19.0953 14.395 19.25 14.4843L20.317 15.1004C20.6503 15.2928 20.6504 15.774 20.317 15.9664L19.25 16.5824C19.0953 16.6718 19 16.8368 19 17.0155V18C19 18.5523 18.5523 19 18 19H8C7.44771 19 7 18.5523 7 18V13C7 12.4477 7.44771 12 8 12H18Z" fill="white"/>
<path d="M20.317 15.1004L20.067 15.5334L20.317 15.1004ZM20.317 15.9664L20.067 15.5334H20.067L20.317 15.9664ZM19.25 16.5824L19.5 17.0155L19.25 16.5824ZM18.5 13C18.5 12.7239 18.2761 12.5 18 12.5V11.5C18.8284 11.5 19.5 12.1716 19.5 13H18.5ZM18.5 14.0513V13H19.5V14.0513H18.5ZM20.067 15.5334L19 14.9174L19.5 14.0513L20.567 14.6674L20.067 15.5334ZM20.067 15.5334L20.067 15.5334L20.567 14.6674C21.2337 15.0523 21.2337 16.0145 20.567 16.3994L20.067 15.5334ZM19 16.1494L20.067 15.5334L20.567 16.3994L19.5 17.0155L19 16.1494ZM18.5 18V17.0155H19.5V18H18.5ZM18 18.5C18.2761 18.5 18.5 18.2761 18.5 18H19.5C19.5 18.8284 18.8284 19.5 18 19.5V18.5ZM8 18.5H18V19.5H8V18.5ZM7.5 18C7.5 18.2761 7.72386 18.5 8 18.5V19.5C7.17157 19.5 6.5 18.8284 6.5 18H7.5ZM7.5 13V18H6.5V13H7.5ZM8 12.5C7.72386 12.5 7.5 12.7239 7.5 13H6.5C6.5 12.1716 7.17157 11.5 8 11.5V12.5ZM18 12.5H8V11.5H18V12.5ZM19.5 17.0155H18.5C18.5 16.6582 18.6906 16.3281 19 16.1494L19.5 17.0155ZM19.5 14.0513L19 14.9174C18.6906 14.7387 18.5 14.4086 18.5 14.0513H19.5Z" fill="black"/>
<rect width="8" height="1" transform="matrix(-1 0 0 1 17 14)" fill="black"/>
<rect width="5" height="1" transform="matrix(-1 0 0 1 14 16)" fill="black"/>
<path fill-rule="evenodd" clip-rule="evenodd" d="M6 5C5.44772 5 5 5.44772 5 6V7.09002C5 7.26865 4.9047 7.43372 4.75 7.52303L3.75 8.10038C3.41667 8.29283 3.41667 8.77396 3.75 8.96641L4.75 9.54376C4.9047 9.63307 5 9.79814 5 9.97677V11C5 11.5523 5.44772 12 6 12H16C16.5523 12 17 11.5523 17 11V6C17 5.44772 16.5523 5 16 5H6Z" fill="white"/>
<path d="M3.75 8.10038L4 8.53339L3.75 8.10038ZM3.75 8.96641L4 8.53339H4L3.75 8.96641ZM4.75 9.54376L4.5 9.97677L4.75 9.54376ZM5.5 6C5.5 5.72386 5.72386 5.5 6 5.5V4.5C5.17157 4.5 4.5 5.17157 4.5 6H5.5ZM5.5 7.09002V6H4.5V7.09002H5.5ZM4 8.53339L5 7.95604L4.5 7.09002L3.5 7.66737L4 8.53339ZM4 8.53339L4 8.53339L3.5 7.66737C2.83334 8.05227 2.83333 9.01452 3.5 9.39942L4 8.53339ZM5 9.11074L4 8.53339L3.5 9.39942L4.5 9.97677L5 9.11074ZM5.5 11V9.97677H4.5V11H5.5ZM6 11.5C5.72386 11.5 5.5 11.2761 5.5 11H4.5C4.5 11.8284 5.17157 12.5 6 12.5V11.5ZM16 11.5H6V12.5H16V11.5ZM16.5 11C16.5 11.2761 16.2761 11.5 16 11.5V12.5C16.8284 12.5 17.5 11.8284 17.5 11H16.5ZM16.5 6V11H17.5V6H16.5ZM16 5.5C16.2761 5.5 16.5 5.72386 16.5 6H17.5C17.5 5.17157 16.8284 4.5 16 4.5V5.5ZM6 5.5H16V4.5H6V5.5ZM4.5 9.97677H5.5C5.5 9.6195 5.3094 9.28938 5 9.11074L4.5 9.97677ZM4.5 7.09002H4.5L5 7.95604C5.3094 7.77741 5.5 7.44728 5.5 7.09002H4.5Z" fill="black"/>
<rect x="7" y="7" width="8" height="1" fill="black"/>
<rect x="7" y="9" width="4" height="1" fill="black"/>
<rect x="0.5" y="0.5" width="23" height="23" rx="11.5" stroke="black"/>
</svg>
