<svg width="20" height="21" viewBox="0 0 20 21" fill="none" xmlns="http://www.w3.org/2000/svg">
<g clip-path="url(#clip0_1713_19319)">
<path d="M6.44797 18.2282C13.992 18.2282 18.12 11.9722 18.12 6.55617C18.12 6.38017 18.12 6.20417 18.112 6.02817C18.912 5.45217 19.608 4.72417 20.16 3.90017C19.424 4.22817 18.632 4.44417 17.8 4.54817C18.648 4.04417 19.296 3.23617 19.608 2.27617C18.816 2.74817 17.936 3.08417 17 3.26817C16.248 2.46817 15.184 1.97217 14.008 1.97217C11.744 1.97217 9.90397 3.81217 9.90397 6.07617C9.90397 6.39617 9.94397 6.70817 10.008 7.01217C6.59997 6.84417 3.57597 5.20417 1.55197 2.72417C1.19997 3.33217 0.999969 4.03617 0.999969 4.78817C0.999969 6.21217 1.72797 7.46817 2.82397 8.20417C2.15197 8.18017 1.51997 7.99617 0.967969 7.69217C0.967969 7.70817 0.967969 7.72417 0.967969 7.74817C0.967969 9.73217 2.38397 11.3962 4.25597 11.7722C3.91197 11.8682 3.55197 11.9162 3.17597 11.9162C2.91197 11.9162 2.65597 11.8922 2.40797 11.8442C2.92797 13.4762 4.44797 14.6602 6.23997 14.6922C4.83197 15.7962 3.06397 16.4522 1.14397 16.4522C0.815969 16.4522 0.487969 16.4362 0.167969 16.3962C1.97597 17.5482 4.13597 18.2282 6.44797 18.2282Z" fill="white"/>
</g>
<defs>
<clipPath id="clip0_1713_19319">
<rect width="20" height="20" fill="white" transform="translate(0 0.5)"/>
</clipPath>
</defs>
</svg>
